<svg width="565" height="265" viewBox="0 0 565 265" fill="none" xmlns="http://www.w3.org/2000/svg">
<path d="M133.946 234.727C133.78 233.324 133.106 232.234 131.924 231.459C130.742 230.683 129.293 230.295 127.575 230.295C126.32 230.295 125.221 230.499 124.279 230.905C123.347 231.311 122.617 231.87 122.091 232.581C121.574 233.292 121.315 234.099 121.315 235.004C121.315 235.761 121.495 236.412 121.855 236.957C122.225 237.493 122.696 237.94 123.268 238.3C123.841 238.651 124.441 238.942 125.069 239.173C125.696 239.395 126.273 239.575 126.8 239.713L129.68 240.489C130.419 240.683 131.241 240.95 132.146 241.292C133.06 241.634 133.932 242.1 134.763 242.691C135.603 243.272 136.296 244.02 136.841 244.934C137.385 245.848 137.658 246.97 137.658 248.3C137.658 249.832 137.256 251.217 136.453 252.455C135.659 253.692 134.495 254.675 132.963 255.404C131.439 256.134 129.588 256.499 127.409 256.499C125.378 256.499 123.619 256.171 122.132 255.515C120.655 254.86 119.492 253.946 118.642 252.773C117.802 251.6 117.327 250.239 117.216 248.688H120.761C120.854 249.759 121.214 250.645 121.842 251.347C122.479 252.039 123.282 252.556 124.251 252.898C125.23 253.23 126.283 253.396 127.409 253.396C128.72 253.396 129.897 253.184 130.941 252.759C131.984 252.325 132.81 251.725 133.42 250.959C134.029 250.183 134.334 249.278 134.334 248.244C134.334 247.303 134.071 246.536 133.544 245.945C133.018 245.354 132.326 244.874 131.467 244.505C130.608 244.136 129.68 243.812 128.683 243.536L125.193 242.538C122.977 241.901 121.223 240.992 119.93 239.81C118.638 238.628 117.991 237.082 117.991 235.17C117.991 233.582 118.421 232.197 119.279 231.016C120.147 229.825 121.311 228.901 122.77 228.246C124.238 227.581 125.876 227.249 127.686 227.249C129.514 227.249 131.139 227.576 132.561 228.232C133.983 228.878 135.109 229.765 135.94 230.891C136.781 232.017 137.224 233.296 137.27 234.727H133.946ZM169.054 230.683V227.636H190.326V230.683H181.407V256H177.973V230.683H169.054ZM241.541 227.636H244.976V246.416C244.976 248.355 244.519 250.086 243.604 251.61C242.7 253.124 241.421 254.32 239.768 255.197C238.115 256.065 236.177 256.499 233.951 256.499C231.726 256.499 229.787 256.065 228.135 255.197C226.482 254.32 225.199 253.124 224.284 251.61C223.38 250.086 222.927 248.355 222.927 246.416V227.636H226.362V246.139C226.362 247.524 226.667 248.757 227.276 249.837C227.885 250.908 228.753 251.753 229.88 252.371C231.015 252.981 232.373 253.286 233.951 253.286C235.53 253.286 236.887 252.981 238.023 252.371C239.159 251.753 240.027 250.908 240.627 249.837C241.236 248.757 241.541 247.524 241.541 246.139V227.636ZM287.887 256H279.134V227.636H288.275C291.027 227.636 293.381 228.204 295.338 229.34C297.296 230.466 298.796 232.087 299.839 234.201C300.883 236.306 301.404 238.827 301.404 241.763C301.404 244.717 300.878 247.261 299.826 249.394C298.773 251.517 297.24 253.152 295.227 254.297C293.215 255.432 290.768 256 287.887 256ZM282.569 252.953H287.666C290.011 252.953 291.954 252.501 293.496 251.596C295.038 250.691 296.188 249.403 296.945 247.732C297.702 246.061 298.08 244.071 298.08 241.763C298.08 239.473 297.707 237.502 296.959 235.849C296.211 234.187 295.094 232.913 293.607 232.027C292.121 231.131 290.269 230.683 288.053 230.683H282.569V252.953ZM337.9 227.636V256H334.466V227.636H337.9ZM396.019 241.818C396.019 244.81 395.479 247.395 394.398 249.574C393.318 251.753 391.836 253.433 389.953 254.615C388.069 255.797 385.918 256.388 383.499 256.388C381.08 256.388 378.929 255.797 377.045 254.615C375.162 253.433 373.68 251.753 372.599 249.574C371.519 247.395 370.979 244.81 370.979 241.818C370.979 238.827 371.519 236.241 372.599 234.062C373.68 231.884 375.162 230.203 377.045 229.021C378.929 227.839 381.08 227.249 383.499 227.249C385.918 227.249 388.069 227.839 389.953 229.021C391.836 230.203 393.318 231.884 394.398 234.062C395.479 236.241 396.019 238.827 396.019 241.818ZM392.695 241.818C392.695 239.362 392.284 237.289 391.462 235.6C390.65 233.91 389.547 232.631 388.152 231.763C386.767 230.896 385.216 230.462 383.499 230.462C381.782 230.462 380.226 230.896 378.832 231.763C377.447 232.631 376.343 233.91 375.522 235.6C374.709 237.289 374.303 239.362 374.303 241.818C374.303 244.274 374.709 246.347 375.522 248.037C376.343 249.726 377.447 251.005 378.832 251.873C380.226 252.741 381.782 253.175 383.499 253.175C385.216 253.175 386.767 252.741 388.152 251.873C389.547 251.005 390.65 249.726 391.462 248.037C392.284 246.347 392.695 244.274 392.695 241.818ZM444.605 234.727C444.439 233.324 443.765 232.234 442.583 231.459C441.402 230.683 439.952 230.295 438.235 230.295C436.979 230.295 435.88 230.499 434.938 230.905C434.006 231.311 433.277 231.87 432.75 232.581C432.233 233.292 431.975 234.099 431.975 235.004C431.975 235.761 432.155 236.412 432.515 236.957C432.884 237.493 433.355 237.94 433.927 238.3C434.5 238.651 435.1 238.942 435.728 239.173C436.356 239.395 436.933 239.575 437.459 239.713L440.34 240.489C441.078 240.683 441.9 240.95 442.805 241.292C443.719 241.634 444.592 242.1 445.423 242.691C446.263 243.272 446.955 244.02 447.5 244.934C448.045 245.848 448.317 246.97 448.317 248.3C448.317 249.832 447.915 251.217 447.112 252.455C446.318 253.692 445.155 254.675 443.622 255.404C442.099 256.134 440.247 256.499 438.068 256.499C436.037 256.499 434.278 256.171 432.792 255.515C431.315 254.86 430.151 253.946 429.302 252.773C428.462 251.6 427.986 250.239 427.875 248.688H431.421C431.513 249.759 431.873 250.645 432.501 251.347C433.138 252.039 433.941 252.556 434.911 252.898C435.889 253.23 436.942 253.396 438.068 253.396C439.38 253.396 440.557 253.184 441.6 252.759C442.643 252.325 443.47 251.725 444.079 250.959C444.688 250.183 444.993 249.278 444.993 248.244C444.993 247.303 444.73 246.536 444.204 245.945C443.677 245.354 442.985 244.874 442.126 244.505C441.268 244.136 440.34 243.812 439.343 243.536L435.853 242.538C433.637 241.901 431.882 240.992 430.59 239.81C429.297 238.628 428.651 237.082 428.651 235.17C428.651 233.582 429.08 232.197 429.939 231.016C430.807 229.825 431.97 228.901 433.429 228.246C434.897 227.581 436.536 227.249 438.345 227.249C440.174 227.249 441.799 227.576 443.22 228.232C444.642 228.878 445.769 229.765 446.6 230.891C447.44 232.017 447.883 233.296 447.929 234.727H444.605Z" fill="#545650"/>
<path d="M61.94 104.68C58.3933 104.68 54.2133 105.567 49.4 107.34C44.7133 109.113 39.0133 112.723 32.3 118.17V186H16.72V91.95H31.54V105.06C38.2533 99.36 44.3333 95.4333 49.78 93.28C55.3533 91.1267 60.6733 90.05 65.74 90.05C74.48 90.05 81.13 92.8367 85.69 98.41C90.3767 103.857 92.72 111.647 92.72 121.78V186H77.14V124.06C77.14 111.14 72.0733 104.68 61.94 104.68Z" fill="#1DAAB9"/>
<path d="M199.745 133.18V144.58C199.745 158.007 196.262 168.583 189.295 176.31C182.455 184.037 172.638 187.9 159.845 187.9C147.178 187.9 137.362 184.037 130.395 176.31C123.428 168.583 119.945 158.007 119.945 144.58V133.18C119.945 120.007 123.365 109.557 130.205 101.83C137.172 93.9767 147.052 90.05 159.845 90.05C172.638 90.05 182.455 93.9767 189.295 101.83C196.262 109.557 199.745 120.007 199.745 133.18ZM183.595 133.18C183.595 124.187 181.568 117.157 177.515 112.09C173.462 106.897 167.572 104.3 159.845 104.3C152.245 104.3 146.355 106.897 142.175 112.09C138.122 117.157 136.095 124.187 136.095 133.18V144.58C136.095 153.953 138.122 161.173 142.175 166.24C146.355 171.307 152.245 173.84 159.845 173.84C167.572 173.84 173.462 171.307 177.515 166.24C181.568 161.173 183.595 153.953 183.595 144.58V133.18Z" fill="#027E89"/>
<path d="M277.458 105.63C271.758 105.63 266.185 106.643 260.738 108.67C255.418 110.697 249.718 114.56 243.638 120.26V186H228.058V91.95H242.878V107.15C249.338 100.817 255.228 96.3833 260.548 93.85C265.995 91.3167 271.631 90.05 277.458 90.05V105.63Z" fill="#077177"/>
<path d="M349.504 182.58C342.41 186.127 334.874 187.9 326.894 187.9C320.054 187.9 314.67 186.507 310.744 183.72C306.944 180.933 304.22 177.197 302.574 172.51C301.054 167.823 300.294 162.63 300.294 156.93V105.63H283.954V91.95H300.294V65.73H315.874V91.95H346.654V105.63H315.874V156.36C315.874 162.947 316.95 167.507 319.104 170.04C321.384 172.447 324.867 173.65 329.554 173.65C331.834 173.65 334.177 173.397 336.584 172.89C339.117 172.257 341.84 171.243 344.754 169.85L349.504 182.58Z" fill="#597F44"/>
<path d="M444.481 133.18V144.58C444.481 158.007 440.998 168.583 434.031 176.31C427.191 184.037 417.375 187.9 404.581 187.9C391.915 187.9 382.098 184.037 375.131 176.31C368.165 168.583 364.681 158.007 364.681 144.58V133.18C364.681 120.007 368.101 109.557 374.941 101.83C381.908 93.9767 391.788 90.05 404.581 90.05C417.375 90.05 427.191 93.9767 434.031 101.83C440.998 109.557 444.481 120.007 444.481 133.18ZM428.331 133.18C428.331 124.187 426.305 117.157 422.251 112.09C418.198 106.897 412.308 104.3 404.581 104.3C396.981 104.3 391.091 106.897 386.911 112.09C382.858 117.157 380.831 124.187 380.831 133.18V144.58C380.831 153.953 382.858 161.173 386.911 166.24C391.091 171.307 396.981 173.84 404.581 173.84C412.308 173.84 418.198 171.307 422.251 166.24C426.305 161.173 428.331 153.953 428.331 144.58V133.18Z" fill="#9F6498"/>
<path d="M518.014 104.68C514.468 104.68 510.288 105.567 505.474 107.34C500.788 109.113 495.088 112.723 488.374 118.17V186H472.794V91.95H487.614V105.06C494.328 99.36 500.408 95.4333 505.854 93.28C511.428 91.1267 516.748 90.05 521.814 90.05C530.554 90.05 537.204 92.8367 541.764 98.41C546.451 103.857 548.794 111.647 548.794 121.78V186H533.214V124.06C533.214 111.14 528.148 104.68 518.014 104.68Z" fill="#B48BD4"/>
</svg>
