<svg width="490" height="146" viewBox="0 0 490 146" fill="none" xmlns="http://www.w3.org/2000/svg">
<path d="M24.8113 123.727C24.6451 122.324 23.9711 121.234 22.7893 120.459C21.6074 119.683 20.1579 119.295 18.4405 119.295C17.1849 119.295 16.0861 119.499 15.1444 119.905C14.2118 120.311 13.4824 120.87 12.9562 121.581C12.4391 122.292 12.1806 123.099 12.1806 124.004C12.1806 124.761 12.3606 125.412 12.7207 125.957C13.09 126.493 13.5609 126.94 14.1334 127.3C14.7058 127.651 15.3059 127.942 15.9338 128.173C16.5616 128.395 17.1387 128.575 17.665 128.713L20.5456 129.489C21.2843 129.683 22.106 129.95 23.0108 130.292C23.9249 130.634 24.7974 131.1 25.6284 131.691C26.4686 132.272 27.1611 133.02 27.7058 133.934C28.2505 134.848 28.5229 135.97 28.5229 137.3C28.5229 138.832 28.1213 140.217 27.318 141.455C26.524 142.692 25.3606 143.675 23.828 144.404C22.3045 145.134 20.4533 145.499 18.2743 145.499C16.2431 145.499 14.4842 145.171 12.9977 144.515C11.5204 143.86 10.3571 142.946 9.50765 141.773C8.66745 140.6 8.19195 139.239 8.08116 137.688H11.6266C11.7189 138.759 12.079 139.645 12.7069 140.347C13.3439 141.039 14.1472 141.556 15.1167 141.898C16.0954 142.23 17.1479 142.396 18.2743 142.396C19.5854 142.396 20.7626 142.184 21.8059 141.759C22.8493 141.325 23.6756 140.725 24.285 139.959C24.8944 139.183 25.1991 138.278 25.1991 137.244C25.1991 136.303 24.9359 135.536 24.4096 134.945C23.8834 134.354 23.1909 133.874 22.3322 133.505C21.4736 133.136 20.5456 132.812 19.5485 132.536L16.0584 131.538C13.8425 130.901 12.0883 129.992 10.7956 128.81C9.50303 127.628 8.85673 126.082 8.85673 124.17C8.85673 122.582 9.28606 121.197 10.1447 120.016C11.0126 118.825 12.176 117.901 13.6348 117.246C15.1028 116.581 16.7417 116.249 18.5513 116.249C20.3795 116.249 22.0045 116.576 23.4263 117.232C24.8482 117.878 25.9746 118.765 26.8056 119.891C27.6458 121.017 28.089 122.296 28.1351 123.727H24.8113ZM83.7089 119.683V116.636H104.982V119.683H96.0626V145H92.6279V119.683H83.7089ZM179.986 116.636H183.421V135.416C183.421 137.355 182.964 139.086 182.05 140.61C181.145 142.124 179.866 143.32 178.213 144.197C176.561 145.065 174.622 145.499 172.397 145.499C170.171 145.499 168.233 145.065 166.58 144.197C164.927 143.32 163.644 142.124 162.73 140.61C161.825 139.086 161.372 137.355 161.372 135.416V116.636H164.807V135.139C164.807 136.524 165.112 137.757 165.721 138.837C166.331 139.908 167.198 140.753 168.325 141.371C169.461 141.981 170.818 142.286 172.397 142.286C173.975 142.286 175.333 141.981 176.468 141.371C177.604 140.753 178.472 139.908 179.072 138.837C179.681 137.757 179.986 136.524 179.986 135.139V116.636ZM250.123 145H241.37V116.636H250.51C253.262 116.636 255.616 117.204 257.574 118.34C259.531 119.466 261.031 121.087 262.075 123.201C263.118 125.306 263.64 127.827 263.64 130.763C263.64 133.717 263.113 136.261 262.061 138.394C261.008 140.517 259.476 142.152 257.463 143.297C255.45 144.432 253.003 145 250.123 145ZM244.804 141.953H249.901C252.246 141.953 254.19 141.501 255.732 140.596C257.273 139.691 258.423 138.403 259.18 136.732C259.937 135.061 260.316 133.071 260.316 130.763C260.316 128.473 259.942 126.502 259.194 124.849C258.446 123.187 257.329 121.913 255.842 121.027C254.356 120.131 252.505 119.683 250.289 119.683H244.804V141.953ZM323.926 116.636V145H320.491V116.636H323.926ZM405.834 130.818C405.834 133.81 405.294 136.395 404.214 138.574C403.133 140.753 401.652 142.433 399.768 143.615C397.884 144.797 395.733 145.388 393.314 145.388C390.895 145.388 388.744 144.797 386.86 143.615C384.977 142.433 383.495 140.753 382.415 138.574C381.334 136.395 380.794 133.81 380.794 130.818C380.794 127.827 381.334 125.241 382.415 123.062C383.495 120.884 384.977 119.203 386.86 118.021C388.744 116.839 390.895 116.249 393.314 116.249C395.733 116.249 397.884 116.839 399.768 118.021C401.652 119.203 403.133 120.884 404.214 123.062C405.294 125.241 405.834 127.827 405.834 130.818ZM402.51 130.818C402.51 128.362 402.099 126.289 401.278 124.6C400.465 122.91 399.362 121.631 397.968 120.763C396.583 119.896 395.032 119.462 393.314 119.462C391.597 119.462 390.041 119.896 388.647 120.763C387.262 121.631 386.159 122.91 385.337 124.6C384.524 126.289 384.118 128.362 384.118 130.818C384.118 133.274 384.524 135.347 385.337 137.037C386.159 138.726 387.262 140.005 388.647 140.873C390.041 141.741 391.597 142.175 393.314 142.175C395.032 142.175 396.583 141.741 397.968 140.873C399.362 140.005 400.465 138.726 401.278 137.037C402.099 135.347 402.51 133.274 402.51 130.818ZM478.211 123.727C478.044 122.324 477.37 121.234 476.189 120.459C475.007 119.683 473.557 119.295 471.84 119.295C470.584 119.295 469.486 119.499 468.544 119.905C467.611 120.311 466.882 120.87 466.356 121.581C465.839 122.292 465.58 123.099 465.58 124.004C465.58 124.761 465.76 125.412 466.12 125.957C466.489 126.493 466.96 126.94 467.533 127.3C468.105 127.651 468.705 127.942 469.333 128.173C469.961 128.395 470.538 128.575 471.064 128.713L473.945 129.489C474.684 129.683 475.505 129.95 476.41 130.292C477.324 130.634 478.197 131.1 479.028 131.691C479.868 132.272 480.56 133.02 481.105 133.934C481.65 134.848 481.922 135.97 481.922 137.3C481.922 138.832 481.521 140.217 480.717 141.455C479.923 142.692 478.76 143.675 477.227 144.404C475.704 145.134 473.853 145.499 471.674 145.499C469.642 145.499 467.884 145.171 466.397 144.515C464.92 143.86 463.756 142.946 462.907 141.773C462.067 140.6 461.591 139.239 461.481 137.688H465.026C465.118 138.759 465.478 139.645 466.106 140.347C466.743 141.039 467.547 141.556 468.516 141.898C469.495 142.23 470.547 142.396 471.674 142.396C472.985 142.396 474.162 142.184 475.205 141.759C476.249 141.325 477.075 140.725 477.684 139.959C478.294 139.183 478.598 138.278 478.598 137.244C478.598 136.303 478.335 135.536 477.809 134.945C477.283 134.354 476.59 133.874 475.732 133.505C474.873 133.136 473.945 132.812 472.948 132.536L469.458 131.538C467.242 130.901 465.488 129.992 464.195 128.81C462.902 127.628 462.256 126.082 462.256 124.17C462.256 122.582 462.685 121.197 463.544 120.016C464.412 118.825 465.575 117.901 467.034 117.246C468.502 116.581 470.141 116.249 471.951 116.249C473.779 116.249 475.404 116.576 476.826 117.232C478.248 117.878 479.374 118.765 480.205 119.891C481.045 121.017 481.488 122.296 481.535 123.727H478.211Z" fill="#545650"/>
<path d="M0 81V1L40 61V1H80V81L40 21V81H0Z" fill="#2B10A5"/>
<path d="M130.965 81.791C123.507 81.791 116.652 80.0583 110.399 76.593C104.222 73.1277 99.2872 68.3063 95.5959 62.129C91.9799 55.8763 90.1719 48.8703 90.1719 41.111C90.1719 33.3517 91.9799 26.3833 95.5959 20.206C99.2872 14.0287 104.222 9.20733 110.399 5.742C116.652 2.27667 123.507 0.543999 130.965 0.543999C138.423 0.543999 145.241 2.27667 151.418 5.742C157.671 9.20733 162.567 14.0287 166.108 20.206C169.724 26.3833 171.532 33.3517 171.532 41.111C171.532 48.8703 169.724 55.8763 166.108 62.129C162.492 68.3063 157.595 73.1277 151.418 76.593C145.241 80.0583 138.423 81.791 130.965 81.791ZM130.965 64.163C137.293 64.163 142.34 62.0537 146.107 57.835C149.949 53.6163 151.87 48.0417 151.87 41.111C151.87 34.105 149.949 28.5303 146.107 24.387C142.34 20.1683 137.293 18.059 130.965 18.059C124.562 18.059 119.439 20.1307 115.597 24.274C111.83 28.4173 109.947 34.0297 109.947 41.111C109.947 48.117 111.83 53.7293 115.597 57.948C119.439 62.0913 124.562 64.163 130.965 64.163ZM222.736 81L206.238 51.055H201.605V81H182.282V1.674H214.713C220.966 1.674 226.277 2.76633 230.646 4.951C235.091 7.13566 238.405 10.149 240.59 13.991C242.775 17.7577 243.867 21.9763 243.867 26.647C243.867 31.9203 242.36 36.6287 239.347 40.772C236.409 44.9153 232.04 47.8533 226.239 49.586L244.545 81H222.736ZM201.605 37.382H213.583C217.124 37.382 219.76 36.5157 221.493 34.783C223.301 33.0503 224.205 30.602 224.205 27.438C224.205 24.4247 223.301 22.0517 221.493 20.319C219.76 18.5863 217.124 17.72 213.583 17.72H201.605V37.382ZM313.062 1.674V17.155H292.044V81H272.721V17.155H251.703V1.674H313.062ZM360.275 81.791C352.817 81.791 345.962 80.0583 339.709 76.593C333.532 73.1277 328.598 68.3063 324.906 62.129C321.29 55.8763 319.482 48.8703 319.482 41.111C319.482 33.3517 321.29 26.3833 324.906 20.206C328.598 14.0287 333.532 9.20733 339.709 5.742C345.962 2.27667 352.817 0.543999 360.275 0.543999C367.733 0.543999 374.551 2.27667 380.728 5.742C386.981 9.20733 391.878 14.0287 395.418 20.206C399.034 26.3833 400.842 33.3517 400.842 41.111C400.842 48.8703 399.034 55.8763 395.418 62.129C391.802 68.3063 386.906 73.1277 380.728 76.593C374.551 80.0583 367.733 81.791 360.275 81.791ZM360.275 64.163C366.603 64.163 371.651 62.0537 375.417 57.835C379.259 53.6163 381.18 48.0417 381.18 41.111C381.18 34.105 379.259 28.5303 375.417 24.387C371.651 20.1683 366.603 18.059 360.275 18.059C353.872 18.059 348.749 20.1307 344.907 24.274C341.141 28.4173 339.257 34.0297 339.257 41.111C339.257 48.117 341.141 53.7293 344.907 57.948C348.749 62.0913 353.872 64.163 360.275 64.163ZM482.556 81H463.233L430.915 32.071V81H411.592V1.674H430.915L463.233 50.829V1.674H482.556V81Z" fill="#2B10A5"/>
<line x1="-8.74228e-08" y1="99" x2="490" y2="99" stroke="#C0C0C0" stroke-width="2"/>
</svg>
